# xmcd
#
# Track frame offsets:
#	150
#	5362
#	25246
#	40278
#	53355
#	64674
#	73493
#	93267
#	113389
#	124722
#	145311
#	159086
#	172736
#	203271
#	218720
#	240867
#	252944
#	267331
#
# Disc length: 3745 seconds
#
# Revision: 1
# Processed by: cddbd v1.5.2PL0 Copyright (c) Steve Scherf et al.
# Submitted via: EasyCDDAExtractor 2010.6.0.0
#
DISCID=de0e9f12
DTITLE=Craig Morrison and The Momentz - Rocket Radio
DYEAR=1999
DGENRE=Rockabilly roots blues
TTITLE0=Rocket Radio
TTITLE1=When Captain Vann Plays the Blues
TTITLE2=Boogie Woogie Country Girl
TTITLE3=Jive House
TTITLE4=Sweet Sweet Girl
TTITLE5=Two Needles
TTITLE6=On the Road Again
TTITLE7=Rockabilly Funeral
TTITLE8=Tongue-Tied Jill
TTITLE9=One Mint Julep
TTITLE10=Mama Don't You Think I Know
TTITLE11=There's A Beautiful Light In the Neighborhooh Tonight 
TTITLE12=The Cickoo
TTITLE13=Violins in the Streets
TTITLE14=Postccards from Amsterdam
TTITLE15=Song for New Year's Day
TTITLE16=Jukebox Eddy Saved the Day
TTITLE17=Incense and Peppermints
EXTD=
EXTT0=
EXTT1=
EXTT2=
EXTT3=
EXTT4=
EXTT5=
EXTT6=
EXTT7=
EXTT8=
EXTT9=
EXTT10=
EXTT11=
EXTT12=
EXTT13=
EXTT14=
EXTT15=
EXTT16=
EXTT17=
PLAYORDER=
